<?xml version="1.0" encoding="UTF-8"?>
<!DOCTYPE svg PUBLIC "-//W3C//DTD SVG 1.1//EN" "http://www.w3.org/Graphics/SVG/1.1/DTD/svg11.dtd">
<svg xmlns="http://www.w3.org/2000/svg" version="1.1" width="751px" height="332px" style="shape-rendering:geometricPrecision; text-rendering:geometricPrecision; image-rendering:optimizeQuality; fill-rule:evenodd; clip-rule:evenodd" xmlns:xlink="http://www.w3.org/1999/xlink">
<g><path style="opacity:0.004" fill="#fefffe" d="M 254.5,-0.5 C 254.833,-0.5 255.167,-0.5 255.5,-0.5C 255.315,0.170143 254.981,0.170143 254.5,-0.5 Z"/></g>
<g><path style="opacity:0.004" fill="#fefffe" d="M 648.5,11.5 C 649.833,12.1667 649.833,12.1667 648.5,11.5 Z"/></g>
<g><path style="opacity:0.004" fill="#fefffe" d="M 118.5,18.5 C 119.833,19.1667 119.833,19.1667 118.5,18.5 Z"/></g>
<g><path style="opacity:0.004" fill="#fefffe" d="M 28.5,28.5 C 29.8333,29.1667 29.8333,29.1667 28.5,28.5 Z"/></g>
<g><path style="opacity:0.004" fill="#fefffe" d="M 71.5,28.5 C 72.8333,29.1667 72.8333,29.1667 71.5,28.5 Z"/></g>
<g><path style="opacity:0.004" fill="#fefffe" d="M 455.5,29.5 C 456.833,30.1667 456.833,30.1667 455.5,29.5 Z"/></g>
<g><path style="opacity:0.004" fill="#fefffe" d="M 291.5,31.5 C 292.833,32.1667 292.833,32.1667 291.5,31.5 Z"/></g>
<g><path style="opacity:0.004" fill="#fefffe" d="M 625.5,31.5 C 626.833,32.1667 626.833,32.1667 625.5,31.5 Z"/></g>
<g><path style="opacity:0.004" fill="#fefffe" d="M 578.5,41.5 C 579.833,42.1667 579.833,42.1667 578.5,41.5 Z"/></g>
<g><path style="opacity:0.004" fill="#fefffe" d="M 465.5,47.5 C 466.833,48.1667 466.833,48.1667 465.5,47.5 Z"/></g>
<g><path style="opacity:0.004" fill="#fefffe" d="M 617.5,48.5 C 618.833,49.1667 618.833,49.1667 617.5,48.5 Z"/></g>
<g><path style="opacity:0.004" fill="#fefffe" d="M 363.5,50.5 C 364.833,51.1667 364.833,51.1667 363.5,50.5 Z"/></g>
<g><path style="opacity:0.004" fill="#fefffe" d="M 650.5,60.5 C 651.833,61.1667 651.833,61.1667 650.5,60.5 Z"/></g>
<g><path style="opacity:0.004" fill="#fefffe" d="M 454.5,63.5 C 455.833,64.1667 455.833,64.1667 454.5,63.5 Z"/></g>
<g><path style="opacity:0.004" fill="#fefffe" d="M 501.5,64.5 C 502.833,65.1667 502.833,65.1667 501.5,64.5 Z"/></g>
<g><path style="opacity:1" fill="#5aa2a2" d="M 172.5,67.5 C 146.337,68.3322 120.003,68.8322 93.5,69C 90.1727,69.6103 86.8394,70.1103 83.5,70.5C 85.1484,69.0735 87.1484,68.2401 89.5,68C 116.542,67.8247 143.542,67.3247 170.5,66.5C 171.183,66.8627 171.85,67.1961 172.5,67.5 Z"/></g>
<g><path style="opacity:1" fill="#025454" d="M 172.5,67.5 C 173.5,67.5 174.5,67.5 175.5,67.5C 192.925,66.6472 209.925,68.8139 226.5,74C 230.732,76.2746 234.732,78.7746 238.5,81.5C 247.961,89.4833 255.461,99.15 261,110.5C 262.333,114.5 263.667,118.5 265,122.5C 265.667,156.833 265.667,191.167 265,225.5C 259.81,262.69 238.643,283.857 201.5,289C 174.502,289.5 147.502,289.667 120.5,289.5C 102.128,291.432 84.4615,288.932 67.5,282C 62.4028,279.391 57.7361,276.225 53.5,272.5C 47.5285,265.245 42.0285,257.578 37,249.5C 34.3915,242.674 32.3915,235.674 31,228.5C 30.2166,194.489 30.5499,160.489 32,126.5C 37.2952,100.539 52.1285,82.3721 76.5,72C 78.74,71.023 81.0733,70.523 83.5,70.5C 86.8394,70.1103 90.1727,69.6103 93.5,69C 120.003,68.8322 146.337,68.3322 172.5,67.5 Z"/></g>
<g><path style="opacity:0.004" fill="#fefffe" d="M 638.5,69.5 C 639.833,70.1667 639.833,70.1667 638.5,69.5 Z"/></g>
<g><path style="opacity:0.004" fill="#fefffe" d="M 3.5,76.5 C 4.83333,77.1667 4.83333,77.1667 3.5,76.5 Z"/></g>
<g><path style="opacity:0.004" fill="#fefffe" d="M 269.5,91.5 C 270.833,92.1667 270.833,92.1667 269.5,91.5 Z"/></g>
<g><path style="opacity:1" fill="#fdfefe" d="M 168.5,164.5 C 186.167,164.5 203.833,164.5 221.5,164.5C 221.5,176.833 221.5,189.167 221.5,201.5C 203.659,201.17 185.992,201.503 168.5,202.5C 167.503,218.992 167.17,235.658 167.5,252.5C 155.167,252.5 142.833,252.5 130.5,252.5C 130.592,235.426 130.592,218.426 130.5,201.5C 112.394,201.699 94.3937,201.366 76.5,200.5C 76.5,189.5 76.5,178.5 76.5,167.5C 90.6797,167.69 104.846,167.357 119,166.5C 121.5,166.667 124,166.833 126.5,167C 127.749,168.824 128.915,168.657 130,166.5C 130.333,149.5 130.667,132.5 131,115.5C 142.968,115.257 154.968,115.59 167,116.5C 167.169,132.672 167.669,148.672 168.5,164.5 Z"/></g>
<g><path style="opacity:0.004" fill="#fefffe" d="M 593.5,116.5 C 594.833,117.167 594.833,117.167 593.5,116.5 Z"/></g>
<g><path style="opacity:1" fill="#89c8c8" d="M 238.5,81.5 C 278.581,95.7836 295.748,124.117 290,166.5C 281.756,199.061 272.756,231.395 263,263.5C 243.997,296.524 215.497,310.024 177.5,304C 158.256,299.606 139.256,294.773 120.5,289.5C 147.502,289.667 174.502,289.5 201.5,289C 238.643,283.857 259.81,262.69 265,225.5C 265.667,191.167 265.667,156.833 265,122.5C 263.667,118.5 262.333,114.5 261,110.5C 255.461,99.15 247.961,89.4833 238.5,81.5 Z"/></g>
<g><path style="opacity:0.004" fill="#fefffe" d="M 16.5,122.5 C 17.8333,123.167 17.8333,123.167 16.5,122.5 Z"/></g>
<g><path style="opacity:1" fill="#8ac9c8" d="M 175.5,67.5 C 174.5,67.5 173.5,67.5 172.5,67.5C 171.85,67.1961 171.183,66.8627 170.5,66.5C 143.542,67.3247 116.542,67.8247 89.5,68C 87.1484,68.2401 85.1484,69.0735 83.5,70.5C 81.0733,70.523 78.74,71.023 76.5,72C 52.1285,82.3721 37.2952,100.539 32,126.5C 30.5499,160.489 30.2166,194.489 31,228.5C 32.3915,235.674 34.3915,242.674 37,249.5C 42.0285,257.578 47.5285,265.245 53.5,272.5C 32.4905,265.997 17.9905,252.331 10,231.5C 5.38574,218.446 4.38574,205.113 7,191.5C 14.4112,165.268 21.4112,138.935 28,112.5C 37.9219,74.3593 62.5886,54.026 102,51.5C 107.509,51.9009 113.009,52.4009 118.5,53C 137.74,57.4079 156.74,62.2413 175.5,67.5 Z"/></g>
<g><path style="opacity:1" fill="#90bab8" d="M 168.5,114.5 C 155.5,114.5 142.5,114.5 129.5,114.5C 129.83,131.675 129.497,148.675 128.5,165.5C 128.5,148.167 128.5,130.833 128.5,113.5C 142.01,113.171 155.344,113.504 168.5,114.5 Z"/></g>
<g><path style="opacity:0.293" fill="#7ca9ab" d="M 428.5,130.5 C 418.451,129.243 408.451,129.243 398.5,130.5C 402.614,129.174 407.114,128.507 412,128.5C 416.5,128.667 421,128.833 425.5,129C 426.737,129.232 427.737,129.732 428.5,130.5 Z"/></g>
<g><path style="opacity:0.327" fill="#7caaad" d="M 558.5,129.5 C 554.154,129.334 549.821,129.501 545.5,130C 544.956,130.717 544.289,131.217 543.5,131.5C 543.414,130.504 543.748,129.671 544.5,129C 549.352,128.185 554.019,128.352 558.5,129.5 Z"/></g>
<g><path style="opacity:0.998" fill="#165c5b" d="M 378.5,128.5 C 381.777,128.216 384.943,128.549 388,129.5C 388.667,145.833 388.667,162.167 388,178.5C 384.606,179.456 381.106,179.789 377.5,179.5C 377.182,162.423 377.515,145.423 378.5,128.5 Z"/></g>
<g><path style="opacity:0.999" fill="#145a5a" d="M 428.5,130.5 C 435.276,131.787 438.61,135.954 438.5,143C 438.017,150.597 434.017,155.263 426.5,157C 428.09,158.046 429.59,159.213 431,160.5C 433.239,165.077 435.905,169.411 439,173.5C 439.788,175.165 440.122,176.831 440,178.5C 436.198,179.806 432.365,179.806 428.5,178.5C 425.333,173.5 422.167,168.5 419,163.5C 416.349,160.924 413.182,159.591 409.5,159.5C 409.666,165.842 409.5,172.175 409,178.5C 405.606,179.456 402.106,179.789 398.5,179.5C 398.5,163.167 398.5,146.833 398.5,130.5C 408.451,129.243 418.451,129.243 428.5,130.5 Z M 409.5,138.5 C 414.915,138.51 420.248,139.177 425.5,140.5C 427.094,143.624 426.428,146.124 423.5,148C 418.934,149.309 414.267,149.809 409.5,149.5C 409.5,145.833 409.5,142.167 409.5,138.5 Z"/></g>
<g><path style="opacity:0.992" fill="#135a59" d="M 700.5,128.5 C 704.925,127.81 708.759,128.81 712,131.5C 718.51,147.044 724.177,162.711 729,178.5C 725.591,179.622 722.091,179.789 718.5,179C 716.837,175.382 715.17,171.715 713.5,168C 708.167,167.333 702.833,167.333 697.5,168C 696.603,172.026 694.937,175.693 692.5,179C 689.183,179.498 685.85,179.665 682.5,179.5C 682.337,177.143 682.503,174.81 683,172.5C 688.74,157.776 694.574,143.109 700.5,128.5 Z M 704.5,147.5 C 706.913,149.985 708.58,152.985 709.5,156.5C 706.894,157.652 704.227,157.818 701.5,157C 703.193,154.066 704.193,150.899 704.5,147.5 Z"/></g>
<g><path style="opacity:0.004" fill="#fefffe" d="M 298.5,133.5 C 299.833,134.167 299.833,134.167 298.5,133.5 Z"/></g>
<g><path style="opacity:0.997" fill="#1c5f5e" d="M 326.5,128.5 C 333.948,126.64 339.448,128.973 343,135.5C 347.013,142.199 351.013,148.866 355,155.5C 355.333,147.167 355.667,138.833 356,130.5C 357.525,129.28 359.359,128.613 361.5,128.5C 363.429,128.54 365.262,128.873 367,129.5C 367.824,146.074 367.658,162.574 366.5,179C 362.375,179.854 358.375,179.52 354.5,178C 349.302,169.48 344.135,160.98 339,152.5C 338.667,160.833 338.333,169.167 338,177.5C 336.178,179.045 334.011,179.712 331.5,179.5C 329.833,179.167 328.167,178.833 326.5,178.5C 325.181,161.833 325.181,145.167 326.5,128.5 Z"/></g>
<g><path style="opacity:0.004" fill="#fefffe" d="M 726.5,135.5 C 727.833,136.167 727.833,136.167 726.5,135.5 Z"/></g>
<g><path style="opacity:0.118" fill="#9ac1c3" d="M 618.5,136.5 C 617.683,139.479 616.849,142.479 616,145.5C 615.617,146.056 615.117,146.389 614.5,146.5C 614.872,142.703 616.206,139.37 618.5,136.5 Z"/></g>
<g><path style="opacity:0.999" fill="#195c5c" d="M 462.5,128.5 C 466.106,128.211 469.606,128.544 473,129.5C 478.76,145.515 484.927,161.349 491.5,177C 488.291,179.44 484.625,180.107 480.5,179C 478.136,175.441 476.469,171.608 475.5,167.5C 470.125,167.172 464.792,167.505 459.5,168.5C 457.733,171.975 456.067,175.475 454.5,179C 451.167,179.667 447.833,179.667 444.5,179C 444.043,178.586 443.709,178.086 443.5,177.5C 449.379,160.976 455.713,144.643 462.5,128.5 Z M 466.5,146.5 C 468.263,149.864 469.93,153.364 471.5,157C 468.773,157.818 466.106,157.652 463.5,156.5C 465.668,153.502 466.668,150.169 466.5,146.5 Z"/></g>
<g><path style="opacity:1" fill="#0c5756" d="M 673.5,159.5 C 672.707,165.753 672.207,172.086 672,178.5C 668.606,179.456 665.106,179.789 661.5,179.5C 661.793,172.745 661.46,166.078 660.5,159.5C 660.123,157.742 659.456,156.075 658.5,154.5C 659.631,153.396 660.465,153.729 661,155.5C 661.518,152.977 662.852,150.977 665,149.5C 665.469,151.108 666.135,152.775 667,154.5C 668.617,153.464 668.784,152.297 667.5,151C 669.902,147.158 672.235,143.325 674.5,139.5C 674.296,140.529 674.796,141.529 676,142.5C 676.998,139.972 677.831,139.972 678.5,142.5C 677.861,145.475 677.361,148.475 677,151.5C 675.232,150.869 674.065,151.702 673.5,154C 674.673,155.826 674.673,157.659 673.5,159.5 Z"/></g>
<g><path style="opacity:1" fill="#226261" d="M 673.5,159.5 C 674.673,157.659 674.673,155.826 673.5,154C 674.065,151.702 675.232,150.869 677,151.5C 677.361,148.475 677.861,145.475 678.5,142.5C 677.831,139.972 676.998,139.972 676,142.5C 674.796,141.529 674.296,140.529 674.5,139.5C 672.235,143.325 669.902,147.158 667.5,151C 668.784,152.297 668.617,153.464 667,154.5C 666.135,152.775 665.469,151.108 665,149.5C 662.852,150.977 661.518,152.977 661,155.5C 660.465,153.729 659.631,153.396 658.5,154.5C 659.456,156.075 660.123,157.742 660.5,159.5C 655.704,151.931 650.871,144.264 646,136.5C 644.293,134.091 643.46,131.425 643.5,128.5C 647.555,128.176 651.555,128.509 655.5,129.5C 659.965,135.8 663.799,142.466 667,149.5C 670.433,142.411 674.266,135.578 678.5,129C 682.423,128.207 686.256,128.374 690,129.5C 690.122,131.169 689.788,132.835 689,134.5C 683.808,142.897 678.642,151.231 673.5,159.5 Z"/></g>
<g><path style="opacity:0.999" fill="#125959" d="M 614.5,146.5 C 615.117,146.389 615.617,146.056 616,145.5C 616.849,142.479 617.683,139.479 618.5,136.5C 618.82,131.682 621.32,129.015 626,128.5C 628.47,128.34 630.636,129.007 632.5,130.5C 637.902,144.54 643.402,158.54 649,172.5C 649.497,174.81 649.663,177.143 649.5,179.5C 646.15,179.665 642.817,179.498 639.5,179C 637.063,175.693 635.397,172.026 634.5,168C 629.167,167.333 623.833,167.333 618.5,168C 616.589,171.58 614.922,175.246 613.5,179C 610.167,179.667 606.833,179.667 603.5,179C 602.524,176.853 602.691,174.686 604,172.5C 607.239,163.695 610.739,155.028 614.5,146.5 Z M 626.5,147.5 C 628.263,150.553 629.097,153.886 629,157.5C 627.044,157.784 624.877,157.784 622.5,157.5C 623.276,153.948 624.609,150.614 626.5,147.5 Z"/></g>
<g><path style="opacity:0.991" fill="#165b5a" d="M 510.5,128.5 C 513.898,128.18 517.232,128.513 520.5,129.5C 527.577,145.573 533.743,161.906 539,178.5C 535.591,179.622 532.091,179.789 528.5,179C 526.912,175.533 525.245,172.033 523.5,168.5C 518.167,167.167 512.833,167.167 507.5,168.5C 506.234,172.197 504.568,175.697 502.5,179C 499.183,179.498 495.85,179.665 492.5,179.5C 492.301,176.059 492.801,172.726 494,169.5C 499.41,155.765 504.91,142.098 510.5,128.5 Z M 514.5,146.5 C 516.121,149.741 517.787,153.075 519.5,156.5C 516.894,157.652 514.227,157.818 511.5,157C 513.208,153.707 514.208,150.207 514.5,146.5 Z"/></g>
<g><path style="opacity:0.004" fill="#fefffe" d="M 5.5,158.5 C 6.83333,159.167 6.83333,159.167 5.5,158.5 Z"/></g>
<g><path style="opacity:0.004" fill="#fefffe" d="M 656.5,158.5 C 657.833,159.167 657.833,159.167 656.5,158.5 Z"/></g>
<g><path style="opacity:0.998" fill="#135a5a" d="M 543.5,131.5 C 544.289,131.217 544.956,130.717 545.5,130C 549.821,129.501 554.154,129.334 558.5,129.5C 563.092,140.401 566.925,151.735 570,163.5C 573.064,151.975 576.731,140.641 581,129.5C 586,128.167 591,128.167 596,129.5C 596.824,146.074 596.658,162.574 595.5,179C 592.24,179.784 589.073,179.617 586,178.5C 585.971,169.671 585.304,161.004 584,152.5C 581.868,161.396 579.035,170.063 575.5,178.5C 571.878,179.659 568.211,179.825 564.5,179C 561.348,169.543 558.181,160.043 555,150.5C 554.667,159.833 554.333,169.167 554,178.5C 550.927,179.617 547.76,179.784 544.5,179C 543.509,163.244 543.175,147.411 543.5,131.5 Z"/></g>
<g><path style="opacity:0.004" fill="#fefffe" d="M 583.5,161.5 C 584.833,162.167 584.833,162.167 583.5,161.5 Z"/></g>
<g><path style="opacity:0.004" fill="#fefffe" d="M 542.5,180.5 C 543.833,181.167 543.833,181.167 542.5,180.5 Z"/></g>
<g><path style="opacity:1" fill="#82aaa9" d="M 108.5,165.5 C 97.6794,166.495 86.6794,166.828 75.5,166.5C 75.5,178.5 75.5,190.5 75.5,202.5C 75.5,190.5 75.5,178.5 75.5,166.5C 86.6794,166.828 97.6794,166.495 108.5,165.5 Z"/></g>
<g><path style="opacity:1" fill="#effcfd" d="M 168.5,114.5 C 168.5,131.167 168.5,147.833 168.5,164.5C 167.669,148.672 167.169,132.672 167,116.5C 154.968,115.59 142.968,115.257 131,115.5C 130.667,132.5 130.333,149.5 130,166.5C 128.915,168.657 127.749,168.824 126.5,167C 124,166.833 121.5,166.667 119,166.5C 104.846,167.357 90.6797,167.69 76.5,167.5C 76.5,178.5 76.5,189.5 76.5,200.5C 94.3937,201.366 112.394,201.699 130.5,201.5C 130.592,218.426 130.592,235.426 130.5,252.5C 129.833,235.833 129.167,219.167 128.5,202.5C 110.833,202.5 93.1667,202.5 75.5,202.5C 75.5,190.5 75.5,178.5 75.5,166.5C 86.6794,166.828 97.6794,166.495 108.5,165.5C 115.167,165.5 121.833,165.5 128.5,165.5C 129.497,148.675 129.83,131.675 129.5,114.5C 142.5,114.5 155.5,114.5 168.5,114.5 Z"/></g>
<g><path style="opacity:1" fill="#319897" d="M 404.5,190.5 C 406.167,190.5 407.833,190.5 409.5,190.5C 409.5,192.833 409.5,195.167 409.5,197.5C 411.167,197.5 412.833,197.5 414.5,197.5C 414.338,195.473 414.505,193.473 415,191.5C 416.388,190.446 417.888,190.28 419.5,191C 420.833,197.333 420.833,203.667 419.5,210C 417.888,210.72 416.388,210.554 415,209.5C 414.503,207.19 414.337,204.857 414.5,202.5C 412.801,202.34 411.134,202.506 409.5,203C 410.136,205.394 410.136,207.894 409.5,210.5C 407.833,210.5 406.167,210.5 404.5,210.5C 404.5,203.833 404.5,197.167 404.5,190.5 Z"/></g>
<g><path style="opacity:0.999" fill="#369e9c" d="M 341.5,190.5 C 346.179,190.334 350.845,190.501 355.5,191C 356.337,192.011 356.67,193.178 356.5,194.5C 353.007,194.998 349.674,194.998 346.5,194.5C 346.5,195.5 346.5,196.5 346.5,197.5C 349.187,197.336 351.854,197.503 354.5,198C 355.833,199.333 355.833,200.667 354.5,202C 351.854,202.497 349.187,202.664 346.5,202.5C 346.422,205.487 347.589,206.153 350,204.5C 352.728,204.764 355.061,205.764 357,207.5C 358.438,201.957 360.438,196.624 363,191.5C 365,190.167 367,190.167 369,191.5C 371,196.833 373,202.167 375,207.5C 375.333,202.167 375.667,196.833 376,191.5C 377.699,190.594 379.533,190.261 381.5,190.5C 381.5,195.5 381.5,200.5 381.5,205.5C 384.167,205.5 386.833,205.5 389.5,205.5C 389.5,207.167 389.5,208.833 389.5,210.5C 382.995,210.337 376.662,210.17 370.5,210C 367.682,204.048 364.682,204.048 361.5,210C 354.808,210.831 348.142,210.664 341.5,209.5C 341.442,203.122 341.442,196.789 341.5,190.5 Z"/></g>
<g><path style="opacity:1" fill="#399c9b" d="M 386.5,190.5 C 392.167,190.5 397.833,190.5 403.5,190.5C 403.938,194.908 401.938,196.575 397.5,195.5C 397.5,200.5 397.5,205.5 397.5,210.5C 395.533,210.739 393.699,210.406 392,209.5C 391.501,204.845 391.334,200.179 391.5,195.5C 387.5,196.167 385.833,194.5 386.5,190.5 Z"/></g>
<g><path style="opacity:1" fill="#339997" d="M 472.5,190.5 C 477.167,190.5 481.833,190.5 486.5,190.5C 486.5,191.833 486.5,193.167 486.5,194.5C 483.833,194.5 481.167,194.5 478.5,194.5C 478.33,195.822 478.663,196.989 479.5,198C 481.473,198.495 483.473,198.662 485.5,198.5C 485.5,199.833 485.5,201.167 485.5,202.5C 483.167,202.5 480.833,202.5 478.5,202.5C 478.663,204.857 478.497,207.19 478,209.5C 476.301,210.406 474.467,210.739 472.5,210.5C 472.5,203.833 472.5,197.167 472.5,190.5 Z"/></g>
<g><path style="opacity:1" fill="#619594" d="M 221.5,164.5 C 222.495,176.989 222.829,189.656 222.5,202.5C 204.5,202.5 186.5,202.5 168.5,202.5C 185.992,201.503 203.659,201.17 221.5,201.5C 221.5,189.167 221.5,176.833 221.5,164.5 Z"/></g>
<g><path style="opacity:1" fill="#2c9695" d="M 501.5,205.5 C 501.5,206.833 501.5,208.167 501.5,209.5C 497.167,209.5 492.833,209.5 488.5,209.5C 488.813,205.958 488.479,202.625 487.5,199.5C 487.5,196.5 487.5,193.5 487.5,190.5C 492.5,190.5 497.5,190.5 502.5,190.5C 502.5,191.833 502.5,193.167 502.5,194.5C 499.854,194.892 497.354,194.892 495,194.5C 494.308,195.025 493.808,195.692 493.5,196.5C 495.766,197.314 498.1,197.814 500.5,198C 501.38,199.356 501.714,200.856 501.5,202.5C 498.833,202.5 496.167,202.5 493.5,202.5C 493.281,203.675 493.614,204.675 494.5,205.5C 496.823,204.328 499.156,204.328 501.5,205.5 Z"/></g>
<g><path style="opacity:0.918" fill="#3b9f9d" d="M 421.5,190.5 C 423.527,190.338 425.527,190.505 427.5,191C 428.956,192.745 430.289,194.578 431.5,196.5C 432.406,194.614 433.406,192.78 434.5,191C 436.579,190.192 438.579,190.359 440.5,191.5C 438.851,195.464 436.684,199.131 434,202.5C 433.503,205.146 433.336,207.813 433.5,210.5C 431.833,210.5 430.167,210.5 428.5,210.5C 428.663,208.143 428.497,205.81 428,203.5C 425.807,199.114 423.64,194.78 421.5,190.5 Z"/></g>
<g><path style="opacity:1" fill="#339c99" d="M 324.5,189.5 C 328.095,190.85 329.428,193.517 328.5,197.5C 330.167,197.5 331.833,197.5 333.5,197.5C 331.051,192.159 332.718,189.825 338.5,190.5C 338.5,197.167 338.5,203.833 338.5,210.5C 332.755,211.175 331.089,208.841 333.5,203.5C 331.955,202.548 330.288,202.215 328.5,202.5C 328.663,204.857 328.497,207.19 328,209.5C 326.333,210.833 324.667,210.833 323,209.5C 321.937,202.556 322.437,195.889 324.5,189.5 Z"/></g>
<g><path style="opacity:0.004" fill="#00fffe" d="M 330.5,205.5 C 331.525,205.897 331.692,206.563 331,207.5C 330.536,206.906 330.369,206.239 330.5,205.5 Z"/></g>
<g><path style="opacity:0.004" fill="#00fffe" d="M 330.5,193.5 C 331.833,194.167 331.833,194.167 330.5,193.5 Z"/></g>
<g><path style="opacity:1" fill="#c4e6e6" d="M 128.5,202.5 C 129.167,219.167 129.833,235.833 130.5,252.5C 142.833,252.5 155.167,252.5 167.5,252.5C 167.17,235.658 167.503,218.992 168.5,202.5C 168.5,219.5 168.5,236.5 168.5,253.5C 155.167,253.5 141.833,253.5 128.5,253.5C 128.5,236.5 128.5,219.5 128.5,202.5 Z"/></g>
<g><path style="opacity:1" fill="#47a3a2" d="M 465.5,190.5 C 467.144,190.286 468.644,190.62 470,191.5C 470.667,197.5 470.667,203.5 470,209.5C 468.333,210.833 466.667,210.833 465,209.5C 464.21,203.085 464.376,196.752 465.5,190.5 Z"/></g>
<g><path style="opacity:0.8" fill="#1c9896" d="M 454.5,191.5 C 455.441,196.07 455.774,200.737 455.5,205.5C 457.833,205.5 460.167,205.5 462.5,205.5C 462.5,206.833 462.5,208.167 462.5,209.5C 458.5,209.5 454.5,209.5 450.5,209.5C 450.5,203.5 450.5,197.5 450.5,191.5C 451.833,191.5 453.167,191.5 454.5,191.5 Z"/></g>
<g><path style="opacity:0.208" fill="#8dd4d5" d="M 454.5,191.5 C 453.167,191.5 451.833,191.5 450.5,191.5C 450.5,197.5 450.5,203.5 450.5,209.5C 454.5,209.5 458.5,209.5 462.5,209.5C 462.5,208.167 462.5,206.833 462.5,205.5C 463.451,206.919 463.784,208.585 463.5,210.5C 458.833,210.5 454.167,210.5 449.5,210.5C 449.5,203.833 449.5,197.167 449.5,190.5C 451.415,190.216 453.081,190.549 454.5,191.5 Z"/></g>
<g><path style="opacity:0.207" fill="#9fe0e2" d="M 487.5,199.5 C 488.479,202.625 488.813,205.958 488.5,209.5C 492.833,209.5 497.167,209.5 501.5,209.5C 501.5,208.167 501.5,206.833 501.5,205.5C 502.451,206.919 502.784,208.585 502.5,210.5C 497.5,210.5 492.5,210.5 487.5,210.5C 487.5,206.833 487.5,203.167 487.5,199.5 Z"/></g>
<g><path style="opacity:0.004" fill="#fefffe" d="M 687.5,213.5 C 688.833,214.167 688.833,214.167 687.5,213.5 Z"/></g>
<g><path style="opacity:0.004" fill="#fefffe" d="M 343.5,227.5 C 344.833,228.167 344.833,228.167 343.5,227.5 Z"/></g>
<g><path style="opacity:0.004" fill="#fefffe" d="M 418.5,247.5 C 419.833,248.167 419.833,248.167 418.5,247.5 Z"/></g>
<g><path style="opacity:0.004" fill="#fefffe" d="M 564.5,256.5 C 565.833,257.167 565.833,257.167 564.5,256.5 Z"/></g>
<g><path style="opacity:0.004" fill="#fefffe" d="M 696.5,257.5 C 697.833,258.167 697.833,258.167 696.5,257.5 Z"/></g>
<g><path style="opacity:0.004" fill="#fefffe" d="M 658.5,263.5 C 659.833,264.167 659.833,264.167 658.5,263.5 Z"/></g>
<g><path style="opacity:0.004" fill="#fefffe" d="M 579.5,264.5 C 580.833,265.167 580.833,265.167 579.5,264.5 Z"/></g>
<g><path style="opacity:0.004" fill="#fefffe" d="M 282.5,267.5 C 283.833,268.167 283.833,268.167 282.5,267.5 Z"/></g>
<g><path style="opacity:0.004" fill="#fefffe" d="M 682.5,273.5 C 683.833,274.167 683.833,274.167 682.5,273.5 Z"/></g>
<g><path style="opacity:0.004" fill="#fefffe" d="M 500.5,282.5 C 501.833,283.167 501.833,283.167 500.5,282.5 Z"/></g>
<g><path style="opacity:0.004" fill="#fefffe" d="M 559.5,287.5 C 560.833,288.167 560.833,288.167 559.5,287.5 Z"/></g>
<g><path style="opacity:0.004" fill="#fefffe" d="M 555.5,296.5 C 556.833,297.167 556.833,297.167 555.5,296.5 Z"/></g>
<g><path style="opacity:0.004" fill="#fefffe" d="M 71.5,301.5 C 72.8333,302.167 72.8333,302.167 71.5,301.5 Z"/></g>
<g><path style="opacity:0.004" fill="#fefffe" d="M 26.5,303.5 C 27.8333,304.167 27.8333,304.167 26.5,303.5 Z"/></g>
<g><path style="opacity:0.004" fill="#fefffe" d="M 555.5,307.5 C 556.833,308.167 556.833,308.167 555.5,307.5 Z"/></g>
<g><path style="opacity:0.004" fill="#fefffe" d="M 557.5,312.5 C 558.833,313.167 558.833,313.167 557.5,312.5 Z"/></g>
<g><path style="opacity:0.004" fill="#fefffe" d="M 63.5,317.5 C 64.8333,318.167 64.8333,318.167 63.5,317.5 Z"/></g>
</svg>
